<svg width="32" height="32" viewBox="0 0 32 32" fill="none" xmlns="http://www.w3.org/2000/svg">
<path d="M9.33331 18.6667C9.73331 18.6667 9.99998 18.8 10.2666 19.0667L16.9333 25.7333C17.4666 26.2667 17.4666 27.0667 16.9333 27.6C16.4 28.1333 15.6 28.1333 15.0666 27.6L8.39998 20.9333C7.86665 20.4 7.86665 19.6 8.39998 19.0667C8.66665 18.8 8.93331 18.6667 9.33331 18.6667V18.6667Z" fill="#E2E8F0"/>
<path d="M22.6667 18.6667C23.0667 18.6667 23.3333 18.8 23.6 19.0667C24.1333 19.6 24.1333 20.4 23.6 20.9333L16.9333 27.6C16.4 28.1333 15.6 28.1333 15.0667 27.6C14.5333 27.0667 14.5333 26.2667 15.0667 25.7333L21.7333 19.0667C22 18.8 22.2667 18.6667 22.6667 18.6667V18.6667Z" fill="#E2E8F0"/>
<path d="M16 4C16.8 4 17.3333 4.53333 17.3333 5.33333L17.3333 26.6667C17.3333 27.4667 16.8 28 16 28C15.2 28 14.6666 27.4667 14.6666 26.6667L14.6666 5.33333C14.6666 4.53333 15.2 4 16 4Z" fill="#E2E8F0"/>
</svg>
