<svg width="59" height="24" viewBox="0 0 59 24" fill="none" xmlns="http://www.w3.org/2000/svg">
<path d="M5.78371 4.7919L10.5754 9.58359L15.3671 4.7919L10.5754 0.00021626L5.78371 4.7919Z" fill="#0EA6E9"/>
<path d="M0.991881 9.58341L5.78357 14.3751L10.5753 9.58341L5.78357 4.79172L0.991881 9.58341Z" fill="#7B3AEC"/>
<path d="M10.5755 19.1667L15.3672 23.9584L20.1589 19.1667L15.3672 14.375L10.5755 19.1667Z" fill="#FBBF23"/>
<path d="M0.991881 19.1667L5.78357 23.9584L10.5753 19.1667L5.78357 14.375L0.991881 19.1667Z" fill="#4ADE80"/>
<path d="M10.5755 9.58341L15.3672 14.3751L20.1589 9.58341L15.3672 4.79172L10.5755 9.58341Z" fill="#EB4899"/>
<path d="M20.1578 19.1666L15.3661 14.3749L20.1578 9.58322V14.7742V19.1666Z" fill="#4ADE80"/>
<path d="M0.991821 9.58359L5.78351 14.3753L0.991821 19.167V13.976V9.58359Z" fill="#FBBF23"/>
<path d="M28.8282 17L32.9242 5.8H35.2282L39.3242 17H37.1482L36.2522 14.408H31.8842L30.9722 17H28.8282ZM32.4442 12.808H35.6922L34.0602 8.152L32.4442 12.808ZM43.4737 17C42.6417 17 41.975 16.7973 41.4737 16.392C40.9724 15.9867 40.7217 15.2667 40.7217 14.232V10.776H39.3617V9.064H40.7217L40.9617 6.936H42.7697V9.064H44.9137V10.776H42.7697V14.248C42.7697 14.632 42.8497 14.8987 43.0097 15.048C43.1804 15.1867 43.4684 15.256 43.8737 15.256H44.8657V17H43.4737ZM47.7761 7.832C47.4027 7.832 47.0934 7.72 46.8481 7.496C46.6134 7.272 46.4961 6.98933 46.4961 6.648C46.4961 6.30667 46.6134 6.02933 46.8481 5.816C47.0934 5.592 47.4027 5.48 47.7761 5.48C48.1494 5.48 48.4534 5.592 48.6881 5.816C48.9334 6.02933 49.0561 6.30667 49.0561 6.648C49.0561 6.98933 48.9334 7.272 48.6881 7.496C48.4534 7.72 48.1494 7.832 47.7761 7.832ZM46.7521 17V9.064H48.8001V17H46.7521ZM54.2177 17.192C53.5137 17.192 52.895 17.08 52.3617 16.856C51.8284 16.6213 51.4017 16.3013 51.0817 15.896C50.7617 15.4907 50.5697 15.0213 50.5057 14.488H52.5697C52.6337 14.7973 52.8044 15.064 53.0817 15.288C53.3697 15.5013 53.7377 15.608 54.1857 15.608C54.6337 15.608 54.959 15.5173 55.1617 15.336C55.375 15.1547 55.4817 14.9467 55.4817 14.712C55.4817 14.3707 55.3324 14.1413 55.0337 14.024C54.735 13.896 54.319 13.7733 53.7857 13.656C53.4444 13.5813 53.0977 13.4907 52.7457 13.384C52.3937 13.2773 52.0684 13.144 51.7697 12.984C51.4817 12.8133 51.247 12.6 51.0657 12.344C50.8844 12.0773 50.7937 11.752 50.7937 11.368C50.7937 10.664 51.071 10.072 51.6257 9.592C52.191 9.112 52.9804 8.872 53.9937 8.872C54.9324 8.872 55.679 9.09067 56.2337 9.528C56.799 9.96533 57.135 10.568 57.2417 11.336H55.3057C55.1884 10.7493 54.7457 10.456 53.9777 10.456C53.5937 10.456 53.295 10.5307 53.0817 10.68C52.879 10.8293 52.7777 11.016 52.7777 11.24C52.7777 11.4747 52.9324 11.6613 53.2417 11.8C53.551 11.9387 53.9617 12.0667 54.4737 12.184C55.0284 12.312 55.535 12.456 55.9937 12.616C56.463 12.7653 56.8364 12.9947 57.1137 13.304C57.391 13.6027 57.5297 14.0347 57.5297 14.6C57.5404 15.0907 57.4124 15.5333 57.1457 15.928C56.879 16.3227 56.495 16.632 55.9937 16.856C55.4924 17.08 54.9004 17.192 54.2177 17.192Z" fill="#141414"/>
</svg>
