<svg width="83" height="24" viewBox="0 0 83 24" fill="none" xmlns="http://www.w3.org/2000/svg">
<path d="M37.815 11.987C38.4308 12.126 38.9174 12.4339 39.2749 12.9106C39.6424 13.3773 39.8261 13.9136 39.8261 14.5194C39.8261 15.4132 39.5182 16.1133 38.9025 16.6198C38.2868 17.1263 37.4228 17.3795 36.3105 17.3795H31.1116V6.87747H36.1466C37.2192 6.87747 38.0584 7.11581 38.6642 7.5925C39.2799 8.06919 39.5877 8.73953 39.5877 9.60353C39.5877 10.2193 39.4239 10.7357 39.0961 11.1528C38.7784 11.5599 38.3513 11.838 37.815 11.987ZM34.0313 11.0485H35.5061C36.241 11.0485 36.6084 10.7456 36.6084 10.1398C36.6084 9.51415 36.241 9.20133 35.5061 9.20133H34.0313V11.0485ZM35.7295 15.0259C36.4644 15.0259 36.8319 14.718 36.8319 14.1023C36.8319 13.7845 36.7326 13.5412 36.5339 13.3724C36.3453 13.2035 36.0722 13.1191 35.7146 13.1191H34.0313V15.0259H35.7295Z" fill="#141414"/>
<path d="M49.0902 13.1042C49.0902 13.3326 49.0753 13.5611 49.0455 13.7895H43.5189C43.5487 14.2463 43.6728 14.5889 43.8913 14.8173C44.1197 15.0358 44.4077 15.145 44.7553 15.145C45.2419 15.145 45.5895 14.9266 45.7981 14.4896H48.9115C48.7824 15.0656 48.5291 15.582 48.1517 16.0388C47.7843 16.4857 47.3175 16.8383 46.7515 17.0965C46.1854 17.3547 45.5597 17.4838 44.8745 17.4838C44.0502 17.4838 43.3153 17.31 42.6698 16.9624C42.0342 16.6148 41.5327 16.1183 41.1653 15.4728C40.8077 14.8273 40.629 14.0675 40.629 13.1936C40.629 12.3197 40.8077 11.5649 41.1653 10.9293C41.5228 10.2838 42.0193 9.78726 42.6549 9.43967C43.3004 9.09209 44.0403 8.91829 44.8745 8.91829C45.6988 8.91829 46.4287 9.08712 47.0643 9.42478C47.6999 9.76243 48.1964 10.2491 48.5539 10.8846C48.9115 11.5103 49.0902 12.2502 49.0902 13.1042ZM46.1109 12.3743C46.1109 12.0168 45.9917 11.7387 45.7534 11.5401C45.515 11.3315 45.2171 11.2273 44.8596 11.2273C44.5021 11.2273 44.2091 11.3266 43.9807 11.5252C43.7523 11.7139 43.6033 11.9969 43.5338 12.3743H46.1109Z" fill="#141414"/>
<path d="M55.7521 8.94809C56.7154 8.94809 57.4801 9.27084 58.0462 9.91636C58.6123 10.5519 58.8953 11.4159 58.8953 12.5084V17.3795H55.9756V12.8957C55.9756 12.419 55.8514 12.0466 55.6032 11.7784C55.3549 11.5004 55.0222 11.3613 54.6051 11.3613C54.1681 11.3613 53.8255 11.5004 53.5772 11.7784C53.3289 12.0466 53.2048 12.419 53.2048 12.8957V17.3795H50.2851V9.02257H53.2048V10.2143C53.463 9.83691 53.8106 9.53402 54.2476 9.3056C54.6845 9.06726 55.186 8.94809 55.7521 8.94809Z" fill="#141414"/>
<path d="M60.0207 13.1936C60.0207 12.3296 60.1746 11.5748 60.4825 10.9293C60.8003 10.2838 61.2323 9.78726 61.7785 9.43967C62.3247 9.09209 62.9305 8.91829 63.5958 8.91829C64.1321 8.91829 64.6088 9.0325 65.0259 9.26091C65.4529 9.4794 65.7856 9.78229 66.024 10.1696V6.35609H68.9586V17.3795H66.024V16.2176C65.7956 16.6049 65.4728 16.9128 65.0557 17.1412C64.6386 17.3696 64.147 17.4838 63.5809 17.4838C62.9156 17.4838 62.3098 17.31 61.7636 16.9624C61.2273 16.6148 60.8003 16.1183 60.4825 15.4728C60.1746 14.8173 60.0207 14.0576 60.0207 13.1936ZM66.0389 13.1936C66.0389 12.6573 65.8899 12.2353 65.592 11.9274C65.304 11.6195 64.9465 11.4656 64.5194 11.4656C64.0825 11.4656 63.72 11.6195 63.432 11.9274C63.144 12.2253 63 12.6474 63 13.1936C63 13.7299 63.144 14.1569 63.432 14.4747C63.72 14.7826 64.0825 14.9365 64.5194 14.9365C64.9465 14.9365 65.304 14.7826 65.592 14.4747C65.8899 14.1668 66.0389 13.7398 66.0389 13.1936Z" fill="#141414"/>
<path d="M72.0971 8.24795C71.5807 8.24795 71.1636 8.10891 70.8458 7.83085C70.5379 7.54285 70.384 7.18533 70.384 6.75829C70.384 6.32133 70.5379 5.95885 70.8458 5.67085C71.1636 5.38285 71.5807 5.23885 72.0971 5.23885C72.6036 5.23885 73.0108 5.38285 73.3186 5.67085C73.6364 5.95885 73.7953 6.32133 73.7953 6.75829C73.7953 7.18533 73.6364 7.54285 73.3186 7.83085C73.0108 8.10891 72.6036 8.24795 72.0971 8.24795ZM73.5421 9.02257V17.3795H70.6224V9.02257H73.5421Z" fill="#141414"/>
<path d="M78.7651 17.4838C78.0103 17.4838 77.335 17.3597 76.7391 17.1114C76.1532 16.8532 75.6864 16.5056 75.3389 16.0686C75.0012 15.6217 74.8125 15.1202 74.7728 14.5641H77.6031C77.6429 14.8322 77.767 15.0408 77.9755 15.1897C78.1841 15.3387 78.4423 15.4132 78.7502 15.4132C78.9885 15.4132 79.1772 15.3635 79.3162 15.2642C79.4553 15.1649 79.5248 15.0358 79.5248 14.8769C79.5248 14.6684 79.4106 14.5144 79.1822 14.4151C78.9538 14.3158 78.5764 14.2066 78.05 14.0874C77.4542 13.9682 76.9576 13.8342 76.5604 13.6852C76.1631 13.5362 75.8155 13.2929 75.5176 12.9553C75.2296 12.6176 75.0856 12.1608 75.0856 11.5848C75.0856 11.0882 75.2197 10.6413 75.4878 10.2441C75.756 9.83691 76.1482 9.51415 76.6647 9.27581C77.191 9.03747 77.8216 8.91829 78.5565 8.91829C79.6489 8.91829 80.508 9.18643 81.1336 9.72271C81.7593 10.259 82.1218 10.9641 82.2211 11.838H79.5844C79.5347 11.5699 79.4155 11.3663 79.2269 11.2273C79.0481 11.0783 78.8048 11.0038 78.4969 11.0038C78.2586 11.0038 78.0749 11.0485 77.9458 11.1379C77.8266 11.2273 77.767 11.3514 77.767 11.5103C77.767 11.7089 77.8812 11.8628 78.1096 11.9721C78.338 12.0714 78.7055 12.1757 79.212 12.2849C79.8178 12.414 80.3193 12.558 80.7165 12.7169C81.1237 12.8758 81.4762 13.134 81.7742 13.4915C82.082 13.8391 82.236 14.3158 82.236 14.9216C82.236 15.4082 82.092 15.8452 81.804 16.2325C81.5259 16.6198 81.1237 16.9277 80.5973 17.1561C80.0809 17.3746 79.4702 17.4838 78.7651 17.4838Z" fill="#141414"/>
<path fill-rule="evenodd" clip-rule="evenodd" d="M0.827586 0C0.370523 0 0 0.370522 0 0.827585V23.1724C0 23.6295 0.370522 24 0.827585 24H23.1724C23.6295 24 24 23.6295 24 23.1724V0.827586C24 0.370523 23.6295 0 23.1724 0H0.827586ZM16.2339 11.7434C17.3449 11.9954 18.2229 12.5534 18.868 13.4174C19.531 14.2634 19.8625 15.2353 19.8625 16.3333C19.8625 17.9533 19.307 19.2222 18.196 20.1402C17.085 21.0582 15.5261 21.5172 13.5191 21.5172H4.13839V2.4827H13.2234C15.1587 2.4827 16.6729 2.91469 17.766 3.77867C18.877 4.64264 19.4325 5.85761 19.4325 7.42356C19.4325 8.53953 19.1368 9.47551 18.5455 10.2315C17.972 10.9695 17.2015 11.4735 16.2339 11.7434Z" fill="#FF4564"/>
</svg>
