<svg width="16" height="16" viewBox="0 0 16 16" fill="none" xmlns="http://www.w3.org/2000/svg">
<path d="M7.9987 9.33333C9.47146 9.33333 10.6654 8.13943 10.6654 6.66667C10.6654 5.19391 9.47146 4 7.9987 4C6.52594 4 5.33203 5.19391 5.33203 6.66667C5.33203 8.13943 6.52594 9.33333 7.9987 9.33333Z" fill="#C7D0FF"/>
<path d="M9.98169 8.43359C9.49329 8.98161 8.78983 9.33349 7.99801 9.33349C7.20626 9.33349 6.50285 8.98169 6.01445 8.43375C4.41553 9.07471 3.20435 10.457 2.80469 12.1668C4.06751 13.7441 5.9775 14.6635 7.99801 14.6668C10.0185 14.6635 11.9285 13.7441 13.1913 12.1668C12.78 10.4073 11.5399 9.06001 9.98169 8.43359Z" fill="#3758F9"/>
<path d="M6.01742 8.43343C5.59734 7.96216 5.33432 7.34754 5.33432 6.6665C5.33432 5.19372 6.5282 3.99984 8.00098 3.99984C9.47376 3.99984 10.6677 5.19372 10.6677 6.6665C10.6677 7.34745 10.4047 7.962 9.98466 8.43327C11.5385 9.0579 12.7751 10.3997 13.1899 12.1519C14.1043 11.0124 14.6543 9.56783 14.6543 7.99316C14.6543 4.31864 11.6755 1.33984 8.00098 1.33984C4.32646 1.33984 1.34766 4.31864 1.34766 7.99316C1.34766 9.56783 1.89762 11.0124 2.81205 12.1519C3.21526 10.449 4.42318 9.07251 6.01742 8.43343Z" fill="#9AABFF"/>
</svg>
