<svg width="24" height="24" viewBox="0 0 24 24" fill="none" xmlns="http://www.w3.org/2000/svg">
<path d="M17.1268 13C16.4258 13 15.7398 13.0615 15.0703 13.174C15.9873 15.538 16.6823 18.01 17.1338 20.5665C19.5173 19.133 21.2598 16.7425 21.8118 13.9235C20.3658 13.33 18.7843 13 17.1268 13Z" fill="#DCE1E8"/>
<path d="M13.0115 12.1217C12.744 11.5147 12.46 10.9162 12.162 10.3262C10.0825 11.0847 7.839 11.4992 5.5 11.4992C4.319 11.4992 3.1645 11.3877 2.041 11.1857C2.0195 11.4547 2 11.7247 2 11.9992C2 14.7017 3.082 17.1532 4.8305 18.9547C6.5285 15.7157 9.466 13.2247 13.0115 12.1217Z" fill="#DCE1E8"/>
<path d="M13.5508 9.75242C13.8803 10.4099 14.1953 11.0759 14.4888 11.7539C15.3423 11.5889 16.2223 11.4999 17.1233 11.4999C18.8313 11.4999 20.4668 11.8119 21.9793 12.3789C21.9838 12.2519 21.9983 12.1279 21.9983 11.9999C21.9983 9.50992 21.0773 7.23442 19.5663 5.48242C17.8603 7.26192 15.8223 8.71792 13.5508 9.75242Z" fill="#DCE1E8"/>
<path d="M5.99219 19.9756C7.66719 21.2406 9.74369 22.0006 11.9997 22.0006C13.3202 22.0006 14.5792 21.7371 15.7342 21.2701C15.2917 18.5811 14.5652 15.9881 13.5912 13.5176C10.2502 14.5146 7.49669 16.8866 5.99219 19.9756Z" fill="#DCE1E8"/>
<path d="M18.5079 4.4225C16.7569 2.917 14.4854 2 12.0004 2C10.9099 2 9.86241 2.1815 8.87891 2.5055C10.3739 4.349 11.7099 6.326 12.8604 8.42C14.9959 7.459 16.9104 6.0945 18.5079 4.4225Z" fill="#DCE1E8"/>
<path d="M2.27734 9.70583C3.32434 9.89633 4.40034 10.0008 5.50134 10.0008C7.58784 10.0008 9.59084 9.63983 11.4558 8.98433C10.2978 6.90083 8.95534 4.93383 7.44284 3.11133C4.87584 4.43283 2.95684 6.82983 2.27734 9.70583Z" fill="#DCE1E8"/>
</svg>
