<svg width="24" height="24" viewBox="0 0 24 24" fill="none" xmlns="http://www.w3.org/2000/svg">
<path d="M21 5.75V18.25C21 19.765 19.765 21 18.25 21H15.5V14H17.31C17.565 14 17.78 13.81 17.81 13.56L17.995 12.06C18.015 11.92 17.97 11.775 17.875 11.67C17.78 11.56 17.645 11.5 17.5 11.5H15.5V9.75C15.5 9.2 15.95 8.75 16.5 8.75H17.5C17.775 8.75 18 8.525 18 8.25V6.56C18 6.305 17.8 6.09 17.545 6.065C17.515 6.06 16.81 6 15.915 6C13.715 6 12.5 7.31 12.5 9.685V11.5H10.5C10.225 11.5 10 11.725 10 12V13.5C10 13.775 10.225 14 10.5 14H12.5V21H5.75C4.235 21 3 19.765 3 18.25V5.75C3 4.235 4.235 3 5.75 3H18.25C19.765 3 21 4.235 21 5.75Z" fill="#DCE1E8"/>
</svg>
