<svg width="24" height="24" viewBox="0 0 24 24" fill="none" xmlns="http://www.w3.org/2000/svg">
<path d="M19 9L12 2H6C5.20435 2 4.44129 2.31607 3.87868 2.87868C3.31607 3.44129 3 4.20435 3 5V19C3 19.7956 3.31607 20.5587 3.87868 21.1213C4.44129 21.6839 5.20435 22 6 22H16C16.7956 22 17.5587 21.6839 18.1213 21.1213C18.6839 20.5587 19 19.7956 19 19V9Z" fill="#9AABFF"/>
<path d="M19 9H14C13.4696 9 12.9609 8.78929 12.5858 8.41421C12.2107 8.03914 12 7.53043 12 7V2L19 9ZM20 18.2542H17.75C17.4848 18.2542 17.2304 18.1489 17.0429 17.9613C16.8554 17.7738 16.75 17.5194 16.75 17.2542C16.75 16.989 16.8554 16.7346 17.0429 16.5471C17.2304 16.3596 17.4848 16.2542 17.75 16.2542H19V15.0042C19 14.739 19.1054 14.4846 19.2929 14.2971C19.4804 14.1096 19.7348 14.0042 20 14.0042C20.2652 14.0042 20.5196 14.1096 20.7071 14.2971C20.8946 14.4846 21 14.739 21 15.0042V17.2542C21.0001 17.3856 20.9743 17.5156 20.924 17.637C20.8738 17.7584 20.8001 17.8686 20.7073 17.9615C20.6144 18.0544 20.5041 18.128 20.3828 18.1783C20.2614 18.2285 20.1313 18.2543 20 18.2542Z" fill="#3758F9"/>
<path d="M17 22.0039C16.2516 22.0045 15.518 21.795 14.8827 21.3994C14.2474 21.0038 13.7358 20.4378 13.4061 19.7659C13.0764 19.094 12.9418 18.3431 13.0177 17.5985C13.0935 16.854 13.3768 16.1456 13.8352 15.554C14.2936 14.9624 14.9088 14.5112 15.6108 14.2518C16.3128 13.9924 17.0736 13.9352 17.8065 14.0867C18.5395 14.2381 19.2152 14.5922 19.757 15.1085C20.2987 15.6249 20.6847 16.283 20.8711 17.0078C20.9035 17.1351 20.9106 17.2675 20.8919 17.3975C20.8731 17.5275 20.8289 17.6525 20.7618 17.7654C20.6948 17.8783 20.6061 17.9769 20.5009 18.0555C20.3956 18.1341 20.276 18.1913 20.1487 18.2236C20.0214 18.2559 19.889 18.2629 19.759 18.244C19.629 18.2251 19.504 18.1808 19.3912 18.1136C19.2783 18.0464 19.1798 17.9576 19.1013 17.8523C19.0228 17.7471 18.9658 17.6273 18.9336 17.5C18.8243 17.0775 18.58 16.7023 18.2378 16.4315C17.8957 16.1607 17.4744 16.009 17.0381 15.9996C16.6018 15.9902 16.1744 16.1236 15.8209 16.3795C15.4675 16.6354 15.2072 16.9997 15.0799 17.4171C14.9525 17.8344 14.9649 18.282 15.1153 18.6916C15.2657 19.1013 15.5458 19.4506 15.913 19.6864C16.2802 19.9222 16.7143 20.0316 17.1494 19.998C17.5845 19.9643 17.9967 19.7895 18.3232 19.5C18.4222 19.4137 18.5373 19.3477 18.6618 19.3059C18.7863 19.264 18.9178 19.2471 19.0488 19.2561C19.1799 19.2651 19.3078 19.2998 19.4255 19.3582C19.5431 19.4166 19.6481 19.4977 19.7344 19.5967C19.8207 19.6957 19.8866 19.8107 19.9285 19.9352C19.9704 20.0597 19.9873 20.1912 19.9783 20.3223C19.9693 20.4533 19.9346 20.5813 19.8762 20.6989C19.8177 20.8165 19.7367 20.9215 19.6377 21.0078C18.9077 21.6476 17.9707 22.0014 17 22.0039ZM10 17.9961H8C7.73478 17.9961 7.48043 17.8907 7.29289 17.7032C7.10536 17.5157 7 17.2613 7 16.9961C7 16.7309 7.10536 16.4765 7.29289 16.289C7.48043 16.1014 7.73478 15.9961 8 15.9961H10C10.2652 15.9961 10.5196 16.1014 10.7071 16.289C10.8946 16.4765 11 16.7309 11 16.9961C11 17.2613 10.8946 17.5157 10.7071 17.7032C10.5196 17.8907 10.2652 17.9961 10 17.9961ZM13 13.9961H8C7.73478 13.9961 7.48043 13.8907 7.29289 13.7032C7.10536 13.5157 7 13.2613 7 12.9961C7 12.7309 7.10536 12.4765 7.29289 12.289C7.48043 12.1015 7.73478 11.9961 8 11.9961H13C13.2652 11.9961 13.5196 12.1015 13.7071 12.289C13.8946 12.4765 14 12.7309 14 12.9961C14 13.2613 13.8946 13.5157 13.7071 13.7032C13.5196 13.8907 13.2652 13.9961 13 13.9961ZM9 9.99609H8C7.73478 9.99609 7.48043 9.89074 7.29289 9.7032C7.10536 9.51566 7 9.26131 7 8.99609C7 8.73088 7.10536 8.47652 7.29289 8.28899C7.48043 8.10145 7.73478 7.99609 8 7.99609H9C9.26522 7.99609 9.51957 8.10145 9.70711 8.28899C9.89464 8.47652 10 8.73088 10 8.99609C10 9.26131 9.89464 9.51566 9.70711 9.7032C9.51957 9.89074 9.26522 9.99609 9 9.99609Z" fill="#3758F9"/>
</svg>
