<svg width="134" height="48" viewBox="0 0 134 48" fill="none" xmlns="http://www.w3.org/2000/svg">
<path d="M129.85 28.0712C123.689 26.7794 117.232 26.8655 111.071 26.6933C98.3645 26.4327 85.66 27.382 73.0389 29.5352C72.71 29.5907 72.4014 29.7952 72.1569 30.1198C71.9124 30.4444 71.7443 30.8725 71.6764 31.3436C71.5622 31.6075 71.4819 31.8993 71.4394 32.2048C70.847 37.1135 70.4323 43.8307 73.8683 46.7587C75.8824 48.481 78.489 47.9643 80.6809 47.7921L91.2256 47.1892C104.91 46.4142 118.594 45.7253 132.279 44.9502C132.474 44.953 132.667 44.8992 132.848 44.792C133.029 44.6848 133.193 44.5263 133.33 44.3258C133.468 44.1254 133.577 43.8869 133.651 43.6244C133.725 43.362 133.762 43.0808 133.76 42.7973C133.523 37.7163 134.471 29.1046 129.85 28.0712Z" fill="#18B9D1"/>
<path d="M55.8976 22.2074C60.4135 22.2074 62.4179 20.2259 62.4179 17.3459C62.4179 14.3968 60.3443 13.0835 57.3491 12.4614L55.1603 12.0006C53.5936 11.655 53.0867 11.056 53.0867 10.2266C53.0867 9.23584 53.9392 8.49856 55.8746 8.49856C57.9482 8.49856 58.8467 9.53536 58.9389 10.7795H62.1415C62.1184 7.76128 59.5379 5.66464 55.9207 5.66464C52.1882 5.66464 49.8381 7.50784 49.8381 10.2266C49.8381 13.1526 51.8195 14.3277 54.6074 14.9267L56.9575 15.4336C58.4781 15.7562 59.1693 16.3322 59.1693 17.415C59.1693 18.6362 58.2016 19.3965 55.8976 19.3965C53.9162 19.3965 52.649 18.4979 52.5107 16.6778H49.3082C49.4695 20.0186 51.7043 22.2074 55.8976 22.2074ZM64.603 22H67.6903V15.3875C67.6903 13.6595 68.7732 12.6227 70.2247 12.6227C71.7684 12.6227 72.4596 13.5213 72.4596 15.0189V22H75.547V14.1434C75.547 11.4707 73.819 9.81184 71.1694 9.81184C69.5335 9.81184 68.4506 10.48 67.7825 11.3786H67.6903V4.9504H64.603V22ZM85.636 10.0192V16.8621C85.636 18.3827 84.9908 19.3274 83.4241 19.3274C81.8344 19.3274 81.1892 18.3827 81.1892 16.8621V10.0192H78.1019V17.3459C78.1019 19.9264 79.7608 22.2074 83.4011 22.2074H83.4241C87.0414 22.2074 88.7233 19.9264 88.7233 17.3459V10.0192H85.636ZM92.7116 22H95.7989V12.6227H98.6559V10.0192H95.7989V9.00544C95.7989 7.85344 96.4671 7.3696 97.6191 7.3696C97.9877 7.3696 98.4025 7.41568 98.7711 7.4848V4.88128C98.3564 4.78912 97.8956 4.72 97.2965 4.72C94.693 4.72 92.7116 6.30976 92.7116 9.00544V10.0192H90.6149V12.6227H92.7116V22ZM102.207 22H105.294V12.6227H108.151V10.0192H105.294V9.00544C105.294 7.85344 105.962 7.3696 107.114 7.3696C107.483 7.3696 107.897 7.41568 108.266 7.4848V4.88128C107.851 4.78912 107.391 4.72 106.792 4.72C104.188 4.72 102.207 6.30976 102.207 9.00544V10.0192H100.11V12.6227H102.207V22ZM110.48 22H113.568V4.9504H110.48V22ZM121.288 22.2074C124.375 22.2074 126.334 20.4333 126.656 18.2675H123.638C123.408 19.0048 122.67 19.6499 121.288 19.6499C119.514 19.6499 118.684 18.4979 118.661 16.8621H126.817V15.664C126.817 12.3923 124.813 9.81184 121.242 9.81184C117.394 9.81184 115.505 12.6227 115.505 16.0326C115.505 19.4886 117.578 22.2074 121.288 22.2074ZM118.684 14.8115C118.753 13.4522 119.514 12.3923 121.242 12.3923C122.855 12.3923 123.615 13.4522 123.661 14.8115H118.684Z" fill="#0D172A"/>
<path d="M16.5003 20.9088L4.49561 27.8391V12.1227L16.5003 5.19103L33.0006 14.7175V9.52648L16.5003 0L0 9.52648V35.6263L16.5003 26.0998L24.0108 30.4367V25.2457L16.5003 20.9088Z" fill="#3758F9"/>
<path d="M16.5003 10.4535L8.97998 14.796V19.987L16.5003 15.6445L28.505 22.5762V38.294L16.5003 31.3623L8.97998 35.7034L5.18962 37.8894L0.00280976 40.8846L0 46.0798L16.5003 36.5533L33.0006 46.0798V19.98L16.5003 10.4535Z" fill="#3758F9"/>
<path d="M50.5139 42.16H51.8042V35.3862H53.7088V34.311H51.8042V32.944C51.8042 32.176 52.2496 31.7459 53.0176 31.7459C53.2787 31.7459 53.5552 31.7766 53.7856 31.8227V30.7475C53.5091 30.6861 53.2173 30.64 52.8026 30.64C51.3895 30.64 50.5139 31.5923 50.5139 32.944V34.311H49.1162V35.3862H50.5139V42.16ZM58.4912 42.2982C60.9488 42.2982 62.0393 40.4857 62.0393 38.2432C62.0393 35.9853 60.9181 34.1728 58.4912 34.1728C56.0643 34.1728 54.943 35.9853 54.943 38.2432C54.943 40.5011 56.0336 42.2982 58.4912 42.2982ZM58.4912 41.1462C56.9091 41.1462 56.2486 39.9328 56.2486 38.2432C56.2486 36.5689 56.8937 35.3248 58.4912 35.3248C60.0886 35.3248 60.7337 36.5536 60.7337 38.2432C60.7337 39.9328 60.0886 41.1462 58.4912 41.1462ZM64.1824 42.16H65.4727V38.3507C65.4727 36.5075 66.1485 35.463 67.6384 35.463H68.2528V34.2189H67.5463C66.5786 34.2189 65.7952 34.7565 65.4727 35.632H65.4112L65.3037 34.311H64.1824V42.16Z" fill="#0D172A"/>
<path d="M76.6667 42.16H78.7864V33.3126H81.9506V31.408H73.5026V33.3126H76.6667V42.16ZM84.6571 42.2982C85.6862 42.2982 86.4388 41.9142 86.8843 41.3305H86.9457L87.0993 42.16H88.9271V36.8761C88.9271 35.248 87.683 34.0345 85.5326 34.0345C83.3515 34.0345 82.2148 35.248 82.2148 36.7533H84.1502C84.1502 36.1849 84.6263 35.7241 85.4865 35.7241C86.4695 35.7241 86.8689 36.2464 86.8689 36.8915V37.5827C86.5003 37.4598 85.763 37.3369 85.0871 37.3369C82.8599 37.3369 81.8615 38.3661 81.8615 39.8099C81.8615 41.223 82.8753 42.2982 84.6571 42.2982ZM85.1486 40.6701C84.3191 40.6701 83.9044 40.2707 83.9044 39.7177C83.9044 39.1494 84.3806 38.7654 85.2868 38.7654C85.8244 38.7654 86.3467 38.8269 86.8689 39.0265V39.1955C86.8689 39.9942 86.2238 40.6701 85.1486 40.6701ZM91.6915 33.1744C92.5055 33.1744 92.9663 32.6982 92.9663 31.9149C92.9663 31.1622 92.5055 30.6861 91.6915 30.6861C90.8467 30.6861 90.4166 31.1622 90.4166 31.9149C90.4166 32.6982 90.8467 33.1744 91.6915 33.1744ZM90.647 42.16H92.7052V34.1728H90.647V42.16ZM94.442 42.16H96.5002V30.7936H94.442V42.16ZM99.5426 42.16H102.154L103.505 36.4921H103.567L104.888 42.16H107.499L109.527 34.3264V34.1728H107.514L106.193 39.856H106.132L104.842 34.1728H102.2L100.91 39.856H100.848L99.5426 34.1728H97.4997V34.3264L99.5426 42.16ZM111.701 33.1744C112.516 33.1744 112.976 32.6982 112.976 31.9149C112.976 31.1622 112.516 30.6861 111.701 30.6861C110.857 30.6861 110.427 31.1622 110.427 31.9149C110.427 32.6982 110.857 33.1744 111.701 33.1744ZM110.657 42.16H112.715V34.1728H110.657V42.16ZM114.452 42.16H116.51V37.7363C116.51 36.5997 117.171 35.9085 118.154 35.9085C119.183 35.9085 119.628 36.5075 119.628 37.5059V42.16H121.687V36.9222C121.687 35.1405 120.55 34.0345 118.783 34.0345C117.693 34.0345 116.956 34.48 116.51 35.079H116.449L116.295 34.1728H114.452V42.16ZM126.264 42.2982C127.4 42.2982 128.061 41.8221 128.46 41.2998H128.521L128.737 42.16H130.58V30.7936H128.521V35.0329H128.46C128.061 34.5107 127.4 34.0345 126.264 34.0345C124.175 34.0345 122.977 35.7856 122.977 38.1664C122.977 40.6086 124.221 42.2982 126.264 42.2982ZM126.832 40.4857C125.542 40.4857 125.065 39.4105 125.065 38.1664C125.065 36.9069 125.511 35.847 126.832 35.847C128.137 35.847 128.598 36.9222 128.598 38.1664C128.598 39.4105 128.122 40.4857 126.832 40.4857Z" fill="white"/>
</svg>
