<svg width="128" height="48" viewBox="0 0 128 48" fill="none" xmlns="http://www.w3.org/2000/svg">
<path d="M117.848 28.0712C112.944 26.7794 107.805 26.8655 102.901 26.6933C92.7881 26.4327 82.6764 27.382 72.631 29.5352C72.3692 29.5907 72.1236 29.7952 71.929 30.1198C71.7344 30.4444 71.6006 30.8725 71.5465 31.3436C71.4557 31.6075 71.3918 31.8993 71.3579 32.2048C70.8864 37.1135 70.5564 43.8307 73.2911 46.7587C74.8942 48.481 76.9688 47.9643 78.7134 47.7921L87.1061 47.1892C97.9978 46.4142 108.89 45.7252 119.781 44.9502C119.936 44.953 120.09 44.8992 120.234 44.792C120.378 44.6848 120.508 44.5263 120.618 44.3258C120.728 44.1254 120.815 43.8869 120.873 43.6244C120.932 43.362 120.961 43.0808 120.96 42.7973C120.771 37.7163 121.526 29.1046 117.848 28.0712Z" fill="#00D1B2"/>
<path d="M55.8976 22.2074C60.4135 22.2074 62.4179 20.2259 62.4179 17.3459C62.4179 14.3968 60.3443 13.0835 57.3491 12.4614L55.1603 12.0006C53.5936 11.655 53.0867 11.056 53.0867 10.2266C53.0867 9.23584 53.9392 8.49856 55.8746 8.49856C57.9482 8.49856 58.8467 9.53536 58.9389 10.7795H62.1415C62.1184 7.76128 59.5379 5.66464 55.9207 5.66464C52.1882 5.66464 49.8381 7.50784 49.8381 10.2266C49.8381 13.1526 51.8195 14.3277 54.6074 14.9267L56.9575 15.4336C58.4781 15.7562 59.1693 16.3322 59.1693 17.415C59.1693 18.6362 58.2016 19.3965 55.8976 19.3965C53.9162 19.3965 52.649 18.4979 52.5107 16.6778H49.3082C49.4695 20.0186 51.7043 22.2074 55.8976 22.2074ZM64.603 22H67.6903V15.3875C67.6903 13.6595 68.7732 12.6227 70.2247 12.6227C71.7684 12.6227 72.4596 13.5213 72.4596 15.0189V22H75.5469V14.1434C75.5469 11.4707 73.8189 9.81184 71.1693 9.81184C69.5335 9.81184 68.4506 10.48 67.7825 11.3786H67.6903V4.9504H64.603V22ZM85.6359 10.0192V16.8621C85.6359 18.3827 84.9908 19.3274 83.4241 19.3274C81.8343 19.3274 81.1892 18.3827 81.1892 16.8621V10.0192H78.1019V17.3459C78.1019 19.9264 79.7607 22.2074 83.4011 22.2074H83.4241C87.0414 22.2074 88.7233 19.9264 88.7233 17.3459V10.0192H85.6359ZM92.7116 22H95.7989V12.6227H98.6559V10.0192H95.7989V9.00544C95.7989 7.85344 96.4671 7.3696 97.6191 7.3696C97.9877 7.3696 98.4024 7.41568 98.7711 7.4848V4.88128C98.3564 4.78912 97.8956 4.72 97.2965 4.72C94.693 4.72 92.7116 6.30976 92.7116 9.00544V10.0192H90.6149V12.6227H92.7116V22ZM102.207 22H105.294V12.6227H108.151V10.0192H105.294V9.00544C105.294 7.85344 105.962 7.3696 107.114 7.3696C107.483 7.3696 107.897 7.41568 108.266 7.4848V4.88128C107.851 4.78912 107.391 4.72 106.792 4.72C104.188 4.72 102.207 6.30976 102.207 9.00544V10.0192H100.11V12.6227H102.207V22ZM110.48 22H113.568V4.9504H110.48V22ZM121.288 22.2074C124.375 22.2074 126.334 20.4333 126.656 18.2675H123.638C123.407 19.0048 122.67 19.6499 121.288 19.6499C119.514 19.6499 118.684 18.4979 118.661 16.8621H126.817V15.664C126.817 12.3923 124.813 9.81184 121.242 9.81184C117.394 9.81184 115.505 12.6227 115.505 16.0326C115.505 19.4886 117.578 22.2074 121.288 22.2074ZM118.684 14.8115C118.753 13.4522 119.514 12.3923 121.242 12.3923C122.855 12.3923 123.615 13.4522 123.661 14.8115H118.684Z" fill="#0D172A"/>
<path d="M16.5003 20.9088L4.49561 27.8391V12.1227L16.5003 5.19102L33.0006 14.7175V9.52648L16.5003 0L0 9.52648V35.6263L16.5003 26.0998L24.0108 30.4367V25.2457L16.5003 20.9088Z" fill="#3758F9"/>
<path d="M16.5003 10.4536L8.97998 14.796V19.9871L16.5003 15.6446L28.505 22.5762V38.294L16.5003 31.3624L8.97998 35.7034L5.18962 37.8894L0.00280976 40.8846L0 46.0799L16.5003 36.5534L33.0006 46.0799V19.98L16.5003 10.4536Z" fill="#3758F9"/>
<path d="M50.5139 42.16H51.8042V35.3862H53.7088V34.311H51.8042V32.944C51.8042 32.176 52.2496 31.7459 53.0176 31.7459C53.2787 31.7459 53.5552 31.7766 53.7856 31.8227V30.7475C53.5091 30.6861 53.2173 30.64 52.8026 30.64C51.3895 30.64 50.5139 31.5923 50.5139 32.944V34.311H49.1162V35.3862H50.5139V42.16ZM58.4912 42.2982C60.9488 42.2982 62.0393 40.4857 62.0393 38.2432C62.0393 35.9853 60.9181 34.1728 58.4912 34.1728C56.0643 34.1728 54.943 35.9853 54.943 38.2432C54.943 40.5011 56.0336 42.2982 58.4912 42.2982ZM58.4912 41.1462C56.9091 41.1462 56.2486 39.9328 56.2486 38.2432C56.2486 36.5689 56.8937 35.3248 58.4912 35.3248C60.0886 35.3248 60.7337 36.5536 60.7337 38.2432C60.7337 39.9328 60.0886 41.1462 58.4912 41.1462ZM64.1824 42.16H65.4727V38.3507C65.4727 36.5075 66.1485 35.463 67.6384 35.463H68.2528V34.2189H67.5462C66.5786 34.2189 65.7952 34.7565 65.4727 35.632H65.4112L65.3037 34.311H64.1824V42.16Z" fill="#0D172A"/>
<path d="M74.3934 42.16H79.4622C81.5666 42.16 82.8875 41.0233 82.8875 39.0573C82.8875 37.6134 82.227 36.8608 81.3669 36.4614V36.4C81.9813 36.0313 82.4882 35.3709 82.4882 34.2035C82.4882 32.4371 81.1826 31.408 79.2933 31.408H74.3934V42.16ZM76.4824 35.6934V33.2665H79.0014C79.9384 33.2665 80.3531 33.7427 80.3531 34.4493C80.3531 35.2173 79.8923 35.6934 78.9554 35.6934H76.4824ZM76.4824 40.2861V37.5059H79.1397C80.2763 37.5059 80.7371 38.151 80.7371 38.8883C80.7371 39.7024 80.2456 40.2861 79.1397 40.2861H76.4824ZM89.339 34.1728V38.7347C89.339 39.7485 88.9089 40.3782 87.8644 40.3782C86.8046 40.3782 86.3745 39.7485 86.3745 38.7347V34.1728H84.3162V39.0573C84.3162 40.7776 85.4222 42.2982 87.849 42.2982H87.8644C90.2759 42.2982 91.3972 40.7776 91.3972 39.0573V34.1728H89.339ZM93.242 42.16H95.3002V30.7936H93.242V42.16ZM106.222 34.0345C104.978 34.0345 104.195 34.6029 103.78 35.2173H103.734C103.273 34.4646 102.459 34.0345 101.338 34.0345C100.247 34.0345 99.5406 34.48 99.0952 35.079H99.0338L98.8802 34.1728H97.037V42.16H99.0952V37.7363C99.0952 36.5997 99.7557 35.9085 100.708 35.9085C101.722 35.9085 102.106 36.5075 102.106 37.5059V42.16H104.149V37.7363C104.149 36.615 104.702 35.9085 105.669 35.9085C106.668 35.9085 107.052 36.5075 107.052 37.5059V42.16H109.11V36.9222C109.11 35.1558 107.989 34.0345 106.222 34.0345ZM113.202 42.2982C114.231 42.2982 114.984 41.9142 115.429 41.3305H115.491L115.644 42.16H117.472V36.8761C117.472 35.248 116.228 34.0345 114.078 34.0345C111.896 34.0345 110.76 35.248 110.76 36.7533H112.695C112.695 36.1849 113.171 35.7241 114.031 35.7241C115.015 35.7241 115.414 36.2464 115.414 36.8915V37.5827C115.045 37.4598 114.308 37.3369 113.632 37.3369C111.405 37.3369 110.407 38.3661 110.407 39.8099C110.407 41.223 111.42 42.2982 113.202 42.2982ZM113.694 40.6701C112.864 40.6701 112.449 40.2707 112.449 39.7177C112.449 39.1494 112.926 38.7654 113.832 38.7654C114.369 38.7654 114.892 38.8269 115.414 39.0265V39.1955C115.414 39.9942 114.769 40.6701 113.694 40.6701Z" fill="white"/>
</svg>
