<svg width="157" height="48" viewBox="0 0 157 48" fill="none" xmlns="http://www.w3.org/2000/svg">
<path d="M150.854 28.0712C142.492 26.7794 133.729 26.8655 125.368 26.6933C108.123 26.4327 90.8814 27.382 73.7528 29.5352C73.3064 29.5907 72.8877 29.7952 72.5558 30.1198C72.224 30.4444 71.9958 30.8725 71.9037 31.3436C71.7488 31.6075 71.6398 31.8993 71.5821 32.2048C70.7781 37.1135 70.2153 43.8307 74.8784 46.7587C77.6119 48.481 81.1493 47.9643 84.124 47.7921L98.4347 47.1892C117.007 46.4142 135.578 45.7253 154.15 44.9502C154.415 44.953 154.677 44.8992 154.922 44.792C155.167 44.6848 155.39 44.5263 155.577 44.3258C155.764 44.1254 155.912 43.8869 156.012 43.6244C156.112 43.362 156.163 43.0808 156.16 42.7973C155.838 37.7163 157.125 29.1046 150.854 28.0712Z" fill="#00B0FF"/>
<path d="M55.8976 22.2074C60.4135 22.2074 62.4179 20.2259 62.4179 17.3459C62.4179 14.3968 60.3443 13.0835 57.3491 12.4614L55.1603 12.0006C53.5936 11.655 53.0867 11.056 53.0867 10.2266C53.0867 9.23584 53.9392 8.49856 55.8746 8.49856C57.9482 8.49856 58.8467 9.53536 58.9389 10.7795H62.1415C62.1184 7.76128 59.5379 5.66464 55.9207 5.66464C52.1882 5.66464 49.8381 7.50784 49.8381 10.2266C49.8381 13.1526 51.8195 14.3277 54.6074 14.9267L56.9575 15.4336C58.4781 15.7562 59.1693 16.3322 59.1693 17.415C59.1693 18.6362 58.2016 19.3965 55.8976 19.3965C53.9162 19.3965 52.649 18.4979 52.5107 16.6778H49.3082C49.4695 20.0186 51.7043 22.2074 55.8976 22.2074ZM64.603 22H67.6903V15.3875C67.6903 13.6595 68.7732 12.6227 70.2247 12.6227C71.7684 12.6227 72.4596 13.5213 72.4596 15.0189V22H75.547V14.1434C75.547 11.4707 73.819 9.81184 71.1694 9.81184C69.5335 9.81184 68.4506 10.48 67.7825 11.3786H67.6903V4.9504H64.603V22ZM85.636 10.0192V16.8621C85.636 18.3827 84.9908 19.3274 83.4241 19.3274C81.8344 19.3274 81.1892 18.3827 81.1892 16.8621V10.0192H78.1019V17.3459C78.1019 19.9264 79.7608 22.2074 83.4011 22.2074H83.4241C87.0414 22.2074 88.7233 19.9264 88.7233 17.3459V10.0192H85.636ZM92.7116 22H95.7989V12.6227H98.6559V10.0192H95.7989V9.00544C95.7989 7.85344 96.4671 7.3696 97.6191 7.3696C97.9877 7.3696 98.4025 7.41568 98.7711 7.4848V4.88128C98.3564 4.78912 97.8956 4.72 97.2965 4.72C94.693 4.72 92.7116 6.30976 92.7116 9.00544V10.0192H90.6149V12.6227H92.7116V22ZM102.207 22H105.294V12.6227H108.151V10.0192H105.294V9.00544C105.294 7.85344 105.962 7.3696 107.114 7.3696C107.483 7.3696 107.897 7.41568 108.266 7.4848V4.88128C107.851 4.78912 107.391 4.72 106.792 4.72C104.188 4.72 102.207 6.30976 102.207 9.00544V10.0192H100.11V12.6227H102.207V22ZM110.48 22H113.568V4.9504H110.48V22ZM121.288 22.2074C124.375 22.2074 126.334 20.4333 126.656 18.2675H123.638C123.408 19.0048 122.67 19.6499 121.288 19.6499C119.514 19.6499 118.684 18.4979 118.661 16.8621H126.817V15.664C126.817 12.3923 124.813 9.81184 121.242 9.81184C117.394 9.81184 115.505 12.6227 115.505 16.0326C115.505 19.4886 117.578 22.2074 121.288 22.2074ZM118.684 14.8115C118.753 13.4522 119.514 12.3923 121.242 12.3923C122.855 12.3923 123.615 13.4522 123.661 14.8115H118.684Z" fill="#0D172A"/>
<path d="M16.5003 20.9088L4.49561 27.8391V12.1227L16.5003 5.19103L33.0006 14.7175V9.52648L16.5003 0L0 9.52648V35.6263L16.5003 26.0998L24.0108 30.4367V25.2457L16.5003 20.9088Z" fill="#3758F9"/>
<path d="M16.5003 10.4535L8.97998 14.796V19.987L16.5003 15.6445L28.505 22.5762V38.294L16.5003 31.3623L8.97998 35.7034L5.18962 37.8894L0.00280976 40.8846L0 46.0798L16.5003 36.5533L33.0006 46.0798V19.98L16.5003 10.4535Z" fill="#3758F9"/>
<path d="M50.5139 42.16H51.8042V35.3862H53.7088V34.311H51.8042V32.944C51.8042 32.176 52.2496 31.7459 53.0176 31.7459C53.2787 31.7459 53.5552 31.7766 53.7856 31.8227V30.7475C53.5091 30.6861 53.2173 30.64 52.8026 30.64C51.3895 30.64 50.5139 31.5923 50.5139 32.944V34.311H49.1162V35.3862H50.5139V42.16ZM58.4912 42.2982C60.9488 42.2982 62.0393 40.4858 62.0393 38.2432C62.0393 35.9853 60.9181 34.1728 58.4912 34.1728C56.0643 34.1728 54.943 35.9853 54.943 38.2432C54.943 40.5011 56.0336 42.2982 58.4912 42.2982ZM58.4912 41.1462C56.9091 41.1462 56.2486 39.9328 56.2486 38.2432C56.2486 36.569 56.8937 35.3248 58.4912 35.3248C60.0886 35.3248 60.7337 36.5536 60.7337 38.2432C60.7337 39.9328 60.0886 41.1462 58.4912 41.1462ZM64.1824 42.16H65.4727V38.3507C65.4727 36.5075 66.1485 35.463 67.6384 35.463H68.2528V34.2189H67.5463C66.5786 34.2189 65.7952 34.7565 65.4727 35.632H65.4112L65.3037 34.311H64.1824V42.16Z" fill="#0D172A"/>
<path d="M74.3935 42.16H76.421V34.695H76.4824L79.8616 40.3629H80.0152L83.3944 34.7411H83.4559V42.16H85.4834V31.408H83.1794L79.9845 36.7994H79.9231L76.7282 31.408H74.3935V42.16ZM89.9821 42.2982C91.0112 42.2982 91.7638 41.9142 92.2093 41.3306H92.2707L92.4243 42.16H94.2521V36.8762C94.2521 35.248 93.008 34.0346 90.8576 34.0346C88.6765 34.0346 87.5398 35.248 87.5398 36.7533H89.4752C89.4752 36.185 89.9513 35.7242 90.8115 35.7242C91.7945 35.7242 92.1939 36.2464 92.1939 36.8915V37.5827C91.8253 37.4598 91.088 37.337 90.4121 37.337C88.1849 37.337 87.1865 38.3661 87.1865 39.8099C87.1865 41.223 88.2003 42.2982 89.9821 42.2982ZM90.4736 40.6701C89.6441 40.6701 89.2294 40.2707 89.2294 39.7178C89.2294 39.1494 89.7056 38.7654 90.6118 38.7654C91.1494 38.7654 91.6717 38.8269 92.1939 39.0266V39.1955C92.1939 39.9942 91.5488 40.6701 90.4736 40.6701ZM99.2437 42.2982C99.9195 42.2982 100.503 42.1754 100.749 42.0986V40.3782H100.595C100.365 40.455 100.119 40.5011 99.8273 40.5011C99.1208 40.5011 98.7982 40.1786 98.7982 39.4259V35.9238H100.718V34.1728H98.7982V32.0685H98.6446L96.8168 32.4986V34.1728H95.4344V35.9238H96.74V39.8714C96.74 41.2845 97.4773 42.2982 99.2437 42.2982ZM105.787 42.2982C107.845 42.2982 109.151 41.1155 109.366 39.6717H107.354C107.2 40.1632 106.708 40.5933 105.787 40.5933C104.604 40.5933 104.051 39.8253 104.036 38.7347H109.473V37.936C109.473 35.7549 108.137 34.0346 105.756 34.0346C103.191 34.0346 101.932 35.9085 101.932 38.1818C101.932 40.4858 103.314 42.2982 105.787 42.2982ZM104.051 37.3677C104.097 36.4614 104.604 35.7549 105.756 35.7549C106.831 35.7549 107.338 36.4614 107.369 37.3677H104.051ZM110.897 42.16H112.848V38.2432C112.848 36.7994 113.554 35.9546 114.783 35.9546H115.505V34.0499H114.921C113.908 34.0499 113.201 34.6336 112.848 35.3862H112.786L112.633 34.1728H110.897V42.16ZM117.911 33.1744C118.726 33.1744 119.186 32.6982 119.186 31.9149C119.186 31.1622 118.726 30.6861 117.911 30.6861C117.067 30.6861 116.637 31.1622 116.637 31.9149C116.637 32.6982 117.067 33.1744 117.911 33.1744ZM116.867 42.16H118.925V34.1728H116.867V42.16ZM123.012 42.2982C124.041 42.2982 124.794 41.9142 125.239 41.3306H125.301L125.454 42.16H127.282V36.8762C127.282 35.248 126.038 34.0346 123.888 34.0346C121.706 34.0346 120.57 35.248 120.57 36.7533H122.505C122.505 36.185 122.981 35.7242 123.841 35.7242C124.825 35.7242 125.224 36.2464 125.224 36.8915V37.5827C124.855 37.4598 124.118 37.337 123.442 37.337C121.215 37.337 120.217 38.3661 120.217 39.8099C120.217 41.223 121.23 42.2982 123.012 42.2982ZM123.504 40.6701C122.674 40.6701 122.259 40.2707 122.259 39.7178C122.259 39.1494 122.736 38.7654 123.642 38.7654C124.179 38.7654 124.702 38.8269 125.224 39.0266V39.1955C125.224 39.9942 124.579 40.6701 123.504 40.6701ZM129.002 42.16H131.06V30.7936H129.002V42.16ZM133.089 38.5811H137.789V36.7379H133.089V38.5811ZM144.483 42.2982C147.048 42.2982 148.922 40.839 148.922 38.0435V31.408H146.803V38.0128C146.803 39.3338 146.25 40.409 144.483 40.409C142.747 40.409 142.179 39.3338 142.179 38.0128V31.408H140.075V38.0435C140.075 40.839 141.964 42.2982 144.483 42.2982ZM151.193 42.16H153.313V31.408H151.193V42.16Z" fill="white"/>
</svg>
