<svg width="148" height="48" viewBox="0 0 148 48" fill="none" xmlns="http://www.w3.org/2000/svg">
<path d="M142.452 28.0712C134.971 26.7794 127.13 26.8655 119.649 26.6933C104.22 26.4327 88.7929 27.382 73.4673 29.5352C73.0679 29.5907 72.6932 29.7952 72.3963 30.1198C72.0993 30.4444 71.8952 30.8725 71.8128 31.3436C71.6742 31.6075 71.5767 31.8993 71.525 32.2048C70.8057 37.1135 70.3021 43.8307 74.4743 46.7587C76.9201 48.481 80.0852 47.9643 82.7468 47.7921L95.5511 47.1892C112.168 46.4142 128.785 45.7253 145.402 44.9502C145.638 44.953 145.873 44.8992 146.093 44.792C146.312 44.6848 146.511 44.5263 146.678 44.3258C146.846 44.1254 146.978 43.8869 147.068 43.6244C147.157 43.362 147.202 43.0808 147.2 42.7973C146.912 37.7163 148.063 29.1046 142.452 28.0712Z" fill="#8D1AFC"/>
<path d="M55.8976 22.2074C60.4135 22.2074 62.4179 20.2259 62.4179 17.3459C62.4179 14.3968 60.3443 13.0835 57.3491 12.4614L55.1603 12.0006C53.5936 11.655 53.0867 11.056 53.0867 10.2266C53.0867 9.23584 53.9392 8.49856 55.8746 8.49856C57.9482 8.49856 58.8467 9.53536 58.9389 10.7795H62.1415C62.1184 7.76128 59.5379 5.66464 55.9207 5.66464C52.1882 5.66464 49.8381 7.50784 49.8381 10.2266C49.8381 13.1526 51.8195 14.3277 54.6074 14.9267L56.9575 15.4336C58.4781 15.7562 59.1693 16.3322 59.1693 17.415C59.1693 18.6362 58.2016 19.3965 55.8976 19.3965C53.9162 19.3965 52.649 18.4979 52.5107 16.6778H49.3082C49.4695 20.0186 51.7043 22.2074 55.8976 22.2074ZM64.603 22H67.6903V15.3875C67.6903 13.6595 68.7732 12.6227 70.2247 12.6227C71.7684 12.6227 72.4596 13.5213 72.4596 15.0189V22H75.547V14.1434C75.547 11.4707 73.819 9.81184 71.1694 9.81184C69.5335 9.81184 68.4506 10.48 67.7825 11.3786H67.6903V4.9504H64.603V22ZM85.636 10.0192V16.8621C85.636 18.3827 84.9908 19.3274 83.4241 19.3274C81.8344 19.3274 81.1892 18.3827 81.1892 16.8621V10.0192H78.1019V17.3459C78.1019 19.9264 79.7608 22.2074 83.4011 22.2074H83.4241C87.0414 22.2074 88.7233 19.9264 88.7233 17.3459V10.0192H85.636ZM92.7116 22H95.7989V12.6227H98.6559V10.0192H95.7989V9.00544C95.7989 7.85344 96.4671 7.3696 97.6191 7.3696C97.9877 7.3696 98.4025 7.41568 98.7711 7.4848V4.88128C98.3564 4.78912 97.8956 4.72 97.2965 4.72C94.693 4.72 92.7116 6.30976 92.7116 9.00544V10.0192H90.6149V12.6227H92.7116V22ZM102.207 22H105.294V12.6227H108.151V10.0192H105.294V9.00544C105.294 7.85344 105.962 7.3696 107.114 7.3696C107.483 7.3696 107.897 7.41568 108.266 7.4848V4.88128C107.851 4.78912 107.391 4.72 106.792 4.72C104.188 4.72 102.207 6.30976 102.207 9.00544V10.0192H100.11V12.6227H102.207V22ZM110.48 22H113.568V4.9504H110.48V22ZM121.288 22.2074C124.375 22.2074 126.334 20.4333 126.656 18.2675H123.638C123.408 19.0048 122.67 19.6499 121.288 19.6499C119.514 19.6499 118.684 18.4979 118.661 16.8621H126.817V15.664C126.817 12.3923 124.813 9.81184 121.242 9.81184C117.394 9.81184 115.505 12.6227 115.505 16.0326C115.505 19.4886 117.578 22.2074 121.288 22.2074ZM118.684 14.8115C118.753 13.4522 119.514 12.3923 121.242 12.3923C122.855 12.3923 123.615 13.4522 123.661 14.8115H118.684Z" fill="#0D172A"/>
<path d="M16.5003 20.9088L4.49561 27.8391V12.1227L16.5003 5.19103L33.0006 14.7175V9.52648L16.5003 0L0 9.52648V35.6263L16.5003 26.0998L24.0108 30.4367V25.2457L16.5003 20.9088Z" fill="#3758F9"/>
<path d="M16.5003 10.4535L8.97998 14.796V19.987L16.5003 15.6445L28.505 22.5762V38.294L16.5003 31.3623L8.97998 35.7034L5.18962 37.8894L0.00280976 40.8846L0 46.0798L16.5003 36.5533L33.0006 46.0798V19.98L16.5003 10.4535Z" fill="#3758F9"/>
<path d="M50.5139 42.16H51.8042V35.3863H53.7088V34.3111H51.8042V32.944C51.8042 32.176 52.2496 31.746 53.0176 31.746C53.2787 31.746 53.5552 31.7767 53.7856 31.8228V30.7476C53.5091 30.6861 53.2173 30.64 52.8026 30.64C51.3895 30.64 50.5139 31.5924 50.5139 32.944V34.3111H49.1162V35.3863H50.5139V42.16ZM58.4912 42.2983C60.9488 42.2983 62.0393 40.4858 62.0393 38.2432C62.0393 35.9853 60.9181 34.1728 58.4912 34.1728C56.0643 34.1728 54.943 35.9853 54.943 38.2432C54.943 40.5012 56.0336 42.2983 58.4912 42.2983ZM58.4912 41.1463C56.9091 41.1463 56.2486 39.9328 56.2486 38.2432C56.2486 36.569 56.8937 35.3248 58.4912 35.3248C60.0886 35.3248 60.7337 36.5536 60.7337 38.2432C60.7337 39.9328 60.0886 41.1463 58.4912 41.1463ZM64.1824 42.16H65.4727V38.3508C65.4727 36.5076 66.1485 35.4631 67.6384 35.4631H68.2528V34.2189H67.5463C66.5786 34.2189 65.7952 34.7565 65.4727 35.632H65.4112L65.3037 34.3111H64.1824V42.16Z" fill="#0D172A"/>
<path d="M74.3935 42.16H79.4623C81.5666 42.16 82.8875 41.0234 82.8875 39.0573C82.8875 37.6135 82.2271 36.8608 81.3669 36.4615V36.4C81.9813 36.0314 82.4882 35.3709 82.4882 34.2036C82.4882 32.4372 81.1826 31.408 79.2933 31.408H74.3935V42.16ZM76.4824 35.6935V33.2666H79.0015C79.9384 33.2666 80.3531 33.7428 80.3531 34.4493C80.3531 35.2173 79.8923 35.6935 78.9554 35.6935H76.4824ZM76.4824 40.2861V37.506H79.1397C80.2763 37.506 80.7371 38.1511 80.7371 38.8884C80.7371 39.7024 80.2456 40.2861 79.1397 40.2861H76.4824ZM87.7876 42.2983C90.3527 42.2983 91.6583 40.5319 91.6583 38.1818C91.6583 35.8164 90.322 34.0346 87.7876 34.0346C85.2379 34.0346 83.9015 35.8164 83.9015 38.1818C83.9015 40.5472 85.2071 42.2983 87.7876 42.2983ZM87.7876 40.4858C86.6356 40.4858 86.0059 39.7024 86.0059 38.1818C86.0059 36.6612 86.6203 35.8471 87.7876 35.8471C88.9396 35.8471 89.5694 36.6458 89.5694 38.1818C89.5694 39.7024 88.9396 40.4858 87.7876 40.4858ZM96.5326 42.2983C99.0977 42.2983 100.403 40.5319 100.403 38.1818C100.403 35.8164 99.067 34.0346 96.5326 34.0346C93.9829 34.0346 92.6465 35.8164 92.6465 38.1818C92.6465 40.5472 93.9521 42.2983 96.5326 42.2983ZM96.5326 40.4858C95.3806 40.4858 94.7509 39.7024 94.7509 38.1818C94.7509 36.6612 95.3653 35.8471 96.5326 35.8471C97.6846 35.8471 98.3144 36.6458 98.3144 38.1818C98.3144 39.7024 97.6846 40.4858 96.5326 40.4858ZM105.109 42.2983C105.784 42.2983 106.368 42.1754 106.614 42.0986V40.3783H106.46C106.23 40.4551 105.984 40.5012 105.692 40.5012C104.986 40.5012 104.663 40.1786 104.663 39.426V35.9239H106.583V34.1728H104.663V32.0685H104.51L102.682 32.4986V34.1728H101.299V35.9239H102.605V39.8714C102.605 41.2845 103.342 42.2983 105.109 42.2983ZM111.268 42.2983C113.203 42.2983 114.662 41.4074 114.662 39.81C114.662 38.2279 113.618 37.6442 112.328 37.3831L110.869 37.122C110.362 37.0144 110.054 36.7994 110.054 36.4C110.054 35.97 110.5 35.6781 111.191 35.6781C112.036 35.6781 112.451 36.1389 112.451 36.6919H114.478C114.478 35.1712 113.219 34.0346 111.222 34.0346C109.194 34.0346 108.042 35.0791 108.042 36.3847C108.042 37.8592 109.087 38.5658 110.377 38.8116L111.667 39.0573C112.297 39.1802 112.589 39.426 112.589 39.8253C112.589 40.24 112.174 40.5626 111.268 40.5626C110.331 40.5626 109.855 40.0864 109.855 39.472H107.797C107.843 41.1463 108.949 42.2983 111.268 42.2983ZM119.359 42.2983C120.034 42.2983 120.618 42.1754 120.864 42.0986V40.3783H120.71C120.48 40.4551 120.234 40.5012 119.942 40.5012C119.236 40.5012 118.913 40.1786 118.913 39.426V35.9239H120.833V34.1728H118.913V32.0685H118.76L116.932 32.4986V34.1728H115.549V35.9239H116.855V39.8714C116.855 41.2845 117.592 42.2983 119.359 42.2983ZM122.492 42.16H124.443V38.2432C124.443 36.7994 125.149 35.9546 126.378 35.9546H127.1V34.05H126.516C125.503 34.05 124.796 34.6336 124.443 35.3863H124.381L124.228 34.1728H122.492V42.16ZM130.647 42.2983C131.676 42.2983 132.429 41.9143 132.874 41.3306H132.936L133.089 42.16H134.917V36.8762C134.917 35.248 133.673 34.0346 131.523 34.0346C129.341 34.0346 128.205 35.248 128.205 36.7533H130.14C130.14 36.185 130.616 35.7242 131.476 35.7242C132.46 35.7242 132.859 36.2464 132.859 36.8916V37.5828C132.49 37.4599 131.753 37.337 131.077 37.337C128.85 37.337 127.852 38.3661 127.852 39.81C127.852 41.2231 128.865 42.2983 130.647 42.2983ZM131.139 40.6701C130.309 40.6701 129.894 40.2708 129.894 39.7178C129.894 39.1495 130.371 38.7655 131.277 38.7655C131.814 38.7655 132.337 38.8269 132.859 39.0266V39.1956C132.859 39.9943 132.214 40.6701 131.139 40.6701ZM136.637 45.6775H138.695V41.2999H138.757C139.156 41.8221 139.816 42.2983 140.968 42.2983C143.042 42.2983 144.24 40.5472 144.24 38.1818C144.24 35.7242 142.981 34.0346 140.968 34.0346C139.816 34.0346 139.156 34.5108 138.757 35.033H138.695L138.48 34.1728H136.637V45.6775ZM140.385 40.4858C139.079 40.4858 138.618 39.426 138.618 38.1818C138.618 36.9223 139.11 35.8471 140.385 35.8471C141.69 35.8471 142.151 36.9223 142.151 38.1818C142.151 39.426 141.706 40.4858 140.385 40.4858Z" fill="white"/>
</svg>
