<svg width="16" height="16" viewBox="0 0 16 16" fill="none" xmlns="http://www.w3.org/2000/svg">
<path d="M12.2067 8.14844C11.6182 8.67179 10.8517 8.99984 10.0024 9.00081C9.82128 9.00081 9.64457 8.98404 9.472 8.95544C9.45378 8.93978 9.43254 8.92786 9.41406 8.91244C10.5858 9.88993 11.3357 11.3554 11.3357 13.0008C11.3358 13.3689 11.0375 13.6674 10.6694 13.6675H14.669C14.6691 13.6675 14.6693 13.6675 14.6694 13.6675C15.0375 13.6674 15.3358 13.3689 15.3357 13.0008C15.3357 10.8424 14.051 8.98779 12.2067 8.14844Z" fill="#3758F9"/>
<path d="M6.0013 9.00065C4.16036 9.00065 2.66797 7.50826 2.66797 5.66732C2.66797 3.82637 4.16036 2.33398 6.0013 2.33398C7.84225 2.33398 9.33463 3.82637 9.33463 5.66732C9.33248 7.50737 7.84136 8.99849 6.0013 9.00065Z" fill="#D8D8FF"/>
<path d="M6.0013 9.00065C4.16036 9.00065 2.66797 7.50826 2.66797 5.66732C2.66797 3.82637 4.16036 2.33398 6.0013 2.33398C7.84225 2.33398 9.33463 3.82637 9.33463 5.66732C9.33248 7.50737 7.84136 8.99849 6.0013 9.00065Z" fill="#C7D0FF"/>
<path d="M8.20565 8.14648C7.61711 8.66984 6.85063 8.99788 6.0013 8.99886C5.15133 8.99886 4.3842 8.6709 3.79541 8.14721C1.95199 8.9869 0.667969 10.841 0.667969 12.9989C0.667969 12.999 0.667969 12.9991 0.667969 12.9992C0.668049 13.3673 0.966555 13.6656 1.33464 13.6655H10.668C10.6681 13.6655 10.6682 13.6655 10.6683 13.6655C11.0364 13.6654 11.3347 13.3669 11.3346 12.9989C11.3346 10.8404 10.0499 8.98584 8.20565 8.14648Z" fill="#ADBBFF"/>
<path d="M10 2.33398C9.24605 2.33398 8.55843 2.59371 8 3.01574C8.18213 3.1534 8.34713 3.30896 8.49735 3.48038C8.53939 3.52791 8.57898 3.57718 8.61829 3.62699C8.69995 3.7316 8.77608 3.83866 8.84497 3.95272C8.90662 4.0533 8.96318 4.15686 9.014 4.26412C9.04232 4.32491 9.07072 4.38464 9.09542 4.44734C9.15987 4.60807 9.21183 4.77457 9.25049 4.94673C9.25952 4.98762 9.26567 5.02904 9.27319 5.07051C9.309 5.26452 9.33333 5.4626 9.33333 5.66732C9.33309 5.87716 9.30904 6.08048 9.27108 6.27877C9.26559 6.30818 9.26237 6.33805 9.25611 6.36718C9.21916 6.53491 9.16643 6.69612 9.1049 6.8531C9.08069 6.91622 9.05705 6.97872 9.02917 7.03991C8.97351 7.15966 8.90995 7.27482 8.8409 7.38638C8.66719 7.67256 8.45304 7.92712 8.20418 8.14839C8.66483 8.35798 9.09033 8.62963 9.46964 8.95528C9.64221 8.98388 9.81893 9.00065 10 9.00065C11.84 8.9985 13.3312 7.50736 13.3333 5.66732C13.3333 3.82638 11.8409 2.33398 10 2.33398Z" fill="#9AABFF"/>
</svg>
