<svg width="101" height="28" viewBox="0 0 101 28" fill="none" xmlns="http://www.w3.org/2000/svg">
<path d="M36.2833 8.20178V15.7618C36.2833 16.5901 36.4991 17.2259 36.9308 17.6693C37.3625 18.1009 37.9691 18.3168 38.7508 18.3168C39.5441 18.3168 40.1566 18.1009 40.5883 17.6693C41.02 17.2259 41.2358 16.5901 41.2358 15.7618V8.20178H43.7033V15.7443C43.7033 16.7826 43.4758 17.6634 43.0208 18.3868C42.5775 19.0984 41.9766 19.6351 41.2183 19.9968C40.4716 20.3584 39.6375 20.5393 38.7158 20.5393C37.8058 20.5393 36.9775 20.3584 36.2308 19.9968C35.4958 19.6351 34.9125 19.0984 34.4808 18.3868C34.0491 17.6634 33.8333 16.7826 33.8333 15.7443V8.20178H36.2833Z" fill="white"/>
<path d="M46.4379 9.56678C46.0063 9.56678 45.6446 9.43261 45.3529 9.16428C45.0729 8.88428 44.9329 8.54011 44.9329 8.13178C44.9329 7.72344 45.0729 7.38511 45.3529 7.11678C45.6446 6.83678 46.0063 6.69678 46.4379 6.69678C46.8696 6.69678 47.2254 6.83678 47.5054 7.11678C47.7971 7.38511 47.9429 7.72344 47.9429 8.13178C47.9429 8.54011 47.7971 8.88428 47.5054 9.16428C47.2254 9.43261 46.8696 9.56678 46.4379 9.56678ZM47.6454 10.7218V20.4168H45.1954V10.7218H47.6454Z" fill="white"/>
<path d="M54.5635 10.5818C55.7185 10.5818 56.6519 10.9493 57.3635 11.6843C58.0752 12.4076 58.431 13.4226 58.431 14.7293V20.4168H55.981V15.0618C55.981 14.2918 55.7885 13.7026 55.4035 13.2943C55.0185 12.8743 54.4935 12.6643 53.8285 12.6643C53.1519 12.6643 52.6152 12.8743 52.2185 13.2943C51.8335 13.7026 51.641 14.2918 51.641 15.0618V20.4168H49.191V10.7218H51.641V11.9293C51.9677 11.5093 52.3819 11.1826 52.8835 10.9493C53.3969 10.7043 53.9569 10.5818 54.5635 10.5818Z" fill="white"/>
<path d="M68.8984 15.3593C68.8984 15.7093 68.875 16.0243 68.8284 16.3043H61.7409C61.7992 17.0043 62.0442 17.5526 62.4759 17.9493C62.9075 18.3459 63.4384 18.5443 64.0684 18.5443C64.9784 18.5443 65.6259 18.1534 66.0109 17.3718H68.6534C68.3734 18.3051 67.8367 19.0751 67.0434 19.6818C66.25 20.2768 65.2759 20.5743 64.1209 20.5743C63.1875 20.5743 62.3475 20.3701 61.6009 19.9618C60.8659 19.5418 60.2884 18.9526 59.8684 18.1943C59.46 17.4359 59.2559 16.5609 59.2559 15.5693C59.2559 14.5659 59.46 13.6851 59.8684 12.9268C60.2767 12.1684 60.8484 11.5851 61.5834 11.1768C62.3184 10.7684 63.1642 10.5643 64.1209 10.5643C65.0425 10.5643 65.865 10.7626 66.5884 11.1593C67.3234 11.5559 67.8892 12.1218 68.2859 12.8568C68.6942 13.5801 68.8984 14.4143 68.8984 15.3593ZM66.3609 14.6593C66.3492 14.0293 66.1217 13.5276 65.6784 13.1543C65.235 12.7693 64.6925 12.5768 64.0509 12.5768C63.4442 12.5768 62.9309 12.7634 62.5109 13.1368C62.1025 13.4984 61.8517 14.0059 61.7584 14.6593H66.3609Z" fill="white"/>
<path d="M72.2616 7.46678V20.4168H69.8116V7.46678H72.2616Z" fill="white"/>
<path d="M14.296 27.4036L22.3319 22.5539C23.6357 21.7671 24.4499 20.3106 24.457 18.7529L24.4999 9.11469C24.507 7.56385 23.7109 6.12252 22.4225 5.35346L14.4157 0.573245C13.1217 -0.199353 11.5078 -0.190381 10.204 0.596456L2.1681 5.44609C0.864301 6.23293 0.0500586 7.68938 0.0432046 9.24698L4.37813e-05 18.8853C-0.00680064 20.4361 0.789298 21.8774 2.0775 22.6466L10.0843 27.4268C11.3784 28.1993 12.9922 28.1904 14.296 27.4036Z" fill="#EAEFF3"/>
<path d="M5.25 17.1813L12.5833 13.9995V20.9995L5.25 17.1813Z" fill="#AB36C6"/>
<path d="M12.5833 7.00024L5.25 17.1821L12.5833 14.0002V7.00024Z" fill="#D873EA"/>
<path d="M12.5866 6.99951L19.9199 17.1813L12.5866 13.9995V6.99951Z" fill="#BE4BD8"/>
<path d="M19.9199 17.1813L12.5866 13.9995V20.9995L19.9199 17.1813Z" fill="#9833A4"/>
<path d="M93.5 17.75C93.5 17.525 93.575 17.375 93.725 17.225L97.475 13.475C97.775 13.175 98.225 13.175 98.525 13.475C98.825 13.775 98.825 14.225 98.525 14.525L94.775 18.275C94.475 18.575 94.025 18.575 93.725 18.275C93.575 18.125 93.5 17.975 93.5 17.75V17.75Z" fill="white"/>
<path d="M93.5 10.25C93.5 10.025 93.575 9.875 93.725 9.725C94.025 9.425 94.475 9.425 94.775 9.725L98.525 13.475C98.825 13.775 98.825 14.225 98.525 14.525C98.225 14.825 97.775 14.825 97.475 14.525L93.725 10.775C93.575 10.625 93.5 10.475 93.5 10.25V10.25Z" fill="white"/>
<path d="M85.25 14C85.25 13.55 85.55 13.25 86 13.25L98 13.25C98.45 13.25 98.75 13.55 98.75 14C98.75 14.45 98.45 14.75 98 14.75L86 14.75C85.55 14.75 85.25 14.45 85.25 14Z" fill="white"/>
</svg>
