<svg width="72" height="24" viewBox="0 0 72 24" fill="none" xmlns="http://www.w3.org/2000/svg">
<path d="M28.6421 19H38.6913V16.9384H31.6979L38.6515 6.95549V5.42424H28.6023V7.4858H35.6023L28.6421 17.4688V19ZM45.1297 19.1989C47.5028 19.1989 49.1335 18.0388 49.5577 16.2689L47.3172 16.017C46.9924 16.8788 46.1969 17.3295 45.1628 17.3295C43.6117 17.3295 42.5842 16.3087 42.5643 14.5653H49.6572V13.8295C49.6572 10.2566 47.5094 8.68561 45.0037 8.68561C42.0871 8.68561 40.1846 10.8267 40.1846 13.9688C40.1846 17.1638 42.0606 19.1989 45.1297 19.1989ZM42.571 12.9479C42.6439 11.6487 43.6051 10.5549 45.0369 10.5549C46.4157 10.5549 47.3437 11.5625 47.357 12.9479H42.571ZM57.8339 14.7178C57.8339 16.2689 56.7269 17.0379 55.6663 17.0379C54.5129 17.0379 53.744 16.2225 53.744 14.9299V8.81818H51.3444V15.3011C51.3444 17.7472 52.7364 19.1326 54.7383 19.1326C56.2629 19.1326 57.3368 18.3305 57.8008 17.1903H57.9069V19H60.2336V8.81818H57.8339V14.7178ZM70.4056 11.5095C70.0742 9.78598 68.6954 8.68561 66.309 8.68561C63.8564 8.68561 62.1859 9.89205 62.1926 11.7746C62.1859 13.2595 63.1007 14.2405 65.0562 14.6449L66.7929 15.0095C67.7276 15.215 68.1651 15.5928 68.1651 16.1695C68.1651 16.8655 67.4094 17.3892 66.2693 17.3892C65.1689 17.3892 64.453 16.9119 64.2475 15.9972L61.9075 16.2225C62.2058 18.0919 63.7768 19.1989 66.2759 19.1989C68.8213 19.1989 70.6177 17.8797 70.6244 15.9508C70.6177 14.4991 69.6831 13.6108 67.7607 13.1932L66.024 12.822C64.9899 12.59 64.5789 12.232 64.5855 11.642C64.5789 10.9527 65.3412 10.4754 66.3422 10.4754C67.4492 10.4754 68.0325 11.0786 68.2181 11.7481L70.4056 11.5095Z" fill="#141414"/>
<path d="M18.9994 8.99995H13.9994V2.99995C13.9994 2.69995 13.7994 2.39995 13.5994 2.19995C13.1994 1.89995 12.4994 1.99995 12.1994 2.39995L4.19939 13.3999C4.09939 13.5999 3.99939 13.7999 3.99939 13.9999C3.99939 14.5999 4.39939 14.9999 4.99939 14.9999H9.99939V20.9999C9.99939 21.5999 10.3994 21.9999 10.9994 21.9999C11.2994 21.9999 11.5994 21.7999 11.7994 21.5999L19.7994 10.5999C19.8994 10.3999 19.9994 10.1999 19.9994 9.99995C19.9994 9.39995 19.5994 8.99995 18.9994 8.99995Z" fill="#FFD55D"/>
</svg>
