<svg width="102" height="24" viewBox="0 0 102 24" fill="none" xmlns="http://www.w3.org/2000/svg">
<path d="M28.9613 18V16.2014L34.871 7.1167H29.0164V5.15294H37.5872V6.95153L31.6409 16.0362H37.6239V18H28.9613ZM43.6879 18.2202C42.8069 18.2202 42.0116 18.0184 41.302 17.6146C40.6046 17.2108 40.0479 16.6541 39.6319 15.9445C39.2281 15.2226 39.0262 14.3906 39.0262 13.4485C39.0262 12.5064 39.2342 11.6805 39.6502 10.9708C40.0662 10.2489 40.6229 9.68612 41.3203 9.28235C42.03 8.87859 42.8253 8.67671 43.7062 8.67671C44.5749 8.67671 45.358 8.87859 46.0554 9.28235C46.765 9.68612 47.3217 10.2489 47.7255 10.9708C48.1415 11.6805 48.3495 12.5064 48.3495 13.4485C48.3495 14.3906 48.1415 15.2226 47.7255 15.9445C47.3217 16.6541 46.765 17.2108 46.0554 17.6146C45.3457 18.0184 44.5566 18.2202 43.6879 18.2202ZM43.6879 16.1831C44.2996 16.1831 44.8319 15.9567 45.2846 15.504C45.7373 15.0391 45.9636 14.3539 45.9636 13.4485C45.9636 12.5431 45.7373 11.864 45.2846 11.4113C44.8319 10.9464 44.3057 10.7139 43.7062 10.7139C43.0822 10.7139 42.5439 10.9464 42.0912 11.4113C41.6507 11.864 41.4304 12.5431 41.4304 13.4485C41.4304 14.3539 41.6507 15.0391 42.0912 15.504C42.5439 15.9567 43.0761 16.1831 43.6879 16.1831ZM53.8452 18.2202C53.0377 18.2202 52.328 18.0918 51.7163 17.8348C51.1045 17.5656 50.6151 17.1986 50.248 16.7336C49.881 16.2687 49.6607 15.7304 49.5873 15.1186H51.9549C52.0283 15.4734 52.224 15.7793 52.5421 16.0362C52.8725 16.2809 53.2946 16.4033 53.8085 16.4033C54.3224 16.4033 54.6956 16.2993 54.928 16.0913C55.1727 15.8833 55.2951 15.6447 55.2951 15.3755C55.2951 14.984 55.1238 14.7209 54.7812 14.5864C54.4386 14.4395 53.9614 14.2988 53.3497 14.1642C52.9581 14.0786 52.5605 13.9746 52.1567 13.8522C51.753 13.7299 51.3798 13.5769 51.0372 13.3934C50.7069 13.1976 50.4377 12.9529 50.2297 12.6593C50.0217 12.3534 49.9177 11.9802 49.9177 11.5398C49.9177 10.7322 50.2358 10.0532 50.872 9.50259C51.5205 8.952 52.4259 8.67671 53.5883 8.67671C54.665 8.67671 55.5214 8.92753 56.1577 9.42918C56.8061 9.93082 57.1916 10.6221 57.3139 11.5031H55.0932C54.9586 10.8301 54.4509 10.4936 53.5699 10.4936C53.1294 10.4936 52.7869 10.5793 52.5421 10.7506C52.3097 10.9219 52.1934 11.136 52.1934 11.3929C52.1934 11.6621 52.3709 11.8762 52.7257 12.0353C53.0805 12.1944 53.5516 12.3412 54.1389 12.4758C54.7751 12.6226 55.3563 12.7878 55.8824 12.9713C56.4207 13.1426 56.849 13.4056 57.1671 13.7605C57.4852 14.1031 57.6443 14.5986 57.6443 15.2471C57.6565 15.8099 57.5097 16.3176 57.2038 16.7704C56.8979 17.2231 56.4574 17.5779 55.8824 17.8348C55.3073 18.0918 54.6283 18.2202 53.8452 18.2202ZM59.3583 22.0376V8.89694H61.4505L61.7074 10.2C62.0011 9.79623 62.3865 9.44141 62.8637 9.13553C63.3531 8.82965 63.9832 8.67671 64.754 8.67671C65.6105 8.67671 66.3752 8.88471 67.0481 9.30071C67.7211 9.71671 68.2533 10.2856 68.6448 11.0075C69.0364 11.7294 69.2321 12.5492 69.2321 13.4668C69.2321 14.3845 69.0364 15.2042 68.6448 15.9261C68.2533 16.6358 67.7211 17.1986 67.0481 17.6146C66.3752 18.0184 65.6105 18.2202 64.754 18.2202C64.0688 18.2202 63.4693 18.0918 62.9554 17.8348C62.4416 17.5779 62.0256 17.2169 61.7074 16.752V22.0376H59.3583ZM64.2585 16.1647C65.0048 16.1647 65.6227 15.9139 66.1121 15.4122C66.6016 14.9106 66.8463 14.2621 66.8463 13.4668C66.8463 12.6715 66.6016 12.0169 66.1121 11.5031C65.6227 10.9892 65.0048 10.7322 64.2585 10.7322C63.4999 10.7322 62.8759 10.9892 62.3865 11.5031C61.9093 12.0047 61.6707 12.6532 61.6707 13.4485C61.6707 14.2438 61.9093 14.8984 62.3865 15.4122C62.8759 15.9139 63.4999 16.1647 64.2585 16.1647ZM74.102 18.2202C73.3189 18.2202 72.6766 18.0979 72.1749 17.8532C71.6733 17.5962 71.3001 17.2598 71.0554 16.8438C70.8107 16.4278 70.6883 15.9689 70.6883 15.4673C70.6883 14.6231 71.0187 13.9379 71.6794 13.4118C72.3401 12.8856 73.3312 12.6226 74.6526 12.6226H76.965V12.4024C76.965 11.7784 76.7876 11.3195 76.4328 11.0259C76.078 10.7322 75.6375 10.5854 75.1114 10.5854C74.6342 10.5854 74.2182 10.7016 73.8634 10.9341C73.5086 11.1544 73.2883 11.4847 73.2027 11.9252H70.9086C70.9697 11.2645 71.19 10.6894 71.5693 10.2C71.9608 9.71059 72.4625 9.33741 73.0742 9.08047C73.686 8.81129 74.3712 8.67671 75.1297 8.67671C76.4267 8.67671 77.4483 9.00094 78.1947 9.64941C78.941 10.2979 79.3142 11.2155 79.3142 12.4024V18H77.3137L77.0935 16.5318C76.8243 17.0212 76.445 17.4249 75.9556 17.7431C75.4785 18.0612 74.8606 18.2202 74.102 18.2202ZM74.6342 16.3849C75.3072 16.3849 75.8272 16.1647 76.1942 15.7242C76.5735 15.2838 76.8121 14.7393 76.91 14.0908H74.9095C74.2855 14.0908 73.8389 14.2071 73.5697 14.4395C73.3006 14.6598 73.166 14.9351 73.166 15.2654C73.166 15.6202 73.3006 15.8955 73.5697 16.0913C73.8389 16.2871 74.1937 16.3849 74.6342 16.3849ZM85.6487 18.2202C84.7188 18.2202 83.8991 18.0184 83.1894 17.6146C82.4798 17.2108 81.9169 16.648 81.5009 15.9261C81.0972 15.2042 80.8953 14.3784 80.8953 13.4485C80.8953 12.5186 81.0972 11.6927 81.5009 10.9708C81.9169 10.2489 82.4798 9.68612 83.1894 9.28235C83.8991 8.87859 84.7188 8.67671 85.6487 8.67671C86.8111 8.67671 87.7899 8.98259 88.5852 9.59435C89.3805 10.1939 89.8882 11.0259 90.1085 12.0904H87.6308C87.5085 11.6499 87.2638 11.3073 86.8967 11.0626C86.5419 10.8056 86.1198 10.6772 85.6304 10.6772C84.9819 10.6772 84.4313 10.9219 83.9786 11.4113C83.5259 11.9007 83.2995 12.5798 83.2995 13.4485C83.2995 14.3172 83.5259 14.9962 83.9786 15.4856C84.4313 15.9751 84.9819 16.2198 85.6304 16.2198C86.1198 16.2198 86.5419 16.0974 86.8967 15.8527C87.2638 15.608 87.5085 15.2593 87.6308 14.8066H90.1085C89.8882 15.8344 89.3805 16.6602 88.5852 17.2842C87.7899 17.9082 86.8111 18.2202 85.6487 18.2202ZM96.2495 18.2202C95.3319 18.2202 94.5182 18.0245 93.8086 17.6329C93.0989 17.2414 92.5422 16.6908 92.1385 15.9812C91.7347 15.2715 91.5328 14.4518 91.5328 13.5219C91.5328 12.5798 91.7286 11.7416 92.1201 11.0075C92.5239 10.2734 93.0745 9.70447 93.7719 9.30071C94.4815 8.88471 95.3135 8.67671 96.2679 8.67671C97.1611 8.67671 97.9502 8.87247 98.6354 9.264C99.3206 9.65553 99.8528 10.1939 100.232 10.8791C100.624 11.552 100.819 12.3045 100.819 13.1365C100.819 13.2711 100.813 13.4118 100.801 13.5586C100.801 13.7054 100.795 13.8584 100.783 14.0174H93.8637C93.9126 14.7271 94.1573 15.2838 94.5978 15.6875C95.0505 16.0913 95.5949 16.2932 96.2312 16.2932C96.7084 16.2932 97.106 16.1892 97.4241 15.9812C97.7545 15.7609 97.9992 15.4795 98.1582 15.1369H100.544C100.373 15.712 100.085 16.2381 99.6815 16.7153C99.29 17.1802 98.8006 17.5473 98.2133 17.8165C97.6382 18.0856 96.9837 18.2202 96.2495 18.2202ZM96.2679 10.5854C95.6928 10.5854 95.1851 10.7506 94.7446 11.0809C94.3041 11.3991 94.0227 11.8885 93.9004 12.5492H98.4335C98.3968 11.9496 98.1766 11.4725 97.7728 11.1176C97.3691 10.7628 96.8674 10.5854 96.2679 10.5854Z" fill="#141414"/>
<path d="M10.5886 1.41187C16.447 1.47321 21.1769 6.19036 21.1769 12.0001C21.1769 17.8098 16.447 22.527 10.5886 22.5883L18.1615 12.0001L10.5886 1.41187Z" fill="#8F69FF"/>
<path d="M10.4761 1.41273C15.2262 1.48602 19.0588 6.19808 19.0588 12.0001C19.0588 17.8021 15.2262 22.5142 10.4761 22.5875C10.4385 22.5879 10.401 22.5883 10.3635 22.5883C4.64001 22.5883 0 17.8477 0 12.0001C0 6.1525 4.64001 1.41187 10.3635 1.41187C10.401 1.41187 10.4385 1.41228 10.4761 1.41273ZM15.5557 12.0001C15.5557 9.07034 13.2311 6.69531 10.3635 6.69531C7.49588 6.69531 5.1713 9.07034 5.1713 12.0001C5.1713 14.9299 7.49592 17.3049 10.3635 17.3049C13.2311 17.3049 15.5557 14.9299 15.5557 12.0001Z" fill="#3957FF"/>
</svg>
