<svg width="16" height="16" viewBox="0 0 16 16" fill="none" xmlns="http://www.w3.org/2000/svg">
<path d="M8.00012 0C12.4265 0.0463476 16.0001 3.61042 16.0001 8C16.0001 12.3896 12.4265 15.9537 8.00012 16L13.7218 8L8.00012 0Z" fill="#8F69FF"/>
<path d="M7.91525 0.00065625C11.5042 0.0560312 14.4 3.61625 14.4 8C14.4 12.3837 11.5042 15.944 7.91528 15.9993C7.8869 15.9997 7.85855 16 7.83019 16C3.50578 16 0 12.4182 0 8C0 3.58181 3.50578 0 7.83019 0C7.85855 0 7.8869 0.0003125 7.91525 0.00065625ZM11.7532 8C11.7532 5.78641 9.99683 3.99194 7.83019 3.99194C5.66355 3.99194 3.9072 5.78641 3.9072 8C3.9072 10.2136 5.66358 12.0081 7.83019 12.0081C9.9968 12.0081 11.7532 10.2136 11.7532 8Z" fill="#3957FF"/>
</svg>
